<svg width="217" height="48" viewBox="0 0 217 48" fill="none" xmlns="http://www.w3.org/2000/svg">
<path d="M65.6801 32.2C64.7334 32.2 63.8467 32.02 63.0201 31.66C62.1934 31.2867 61.4601 30.7733 60.8201 30.12C60.1934 29.4667 59.7001 28.7133 59.3401 27.86C58.9801 27.0067 58.8001 26.0867 58.8001 25.1C58.8001 24.1 58.9734 23.16 59.3201 22.28C59.6801 21.4 60.1734 20.6267 60.8001 19.96C61.4401 19.2933 62.1734 18.7733 63.0001 18.4C63.8401 18.0133 64.7334 17.82 65.6801 17.82C66.8134 17.82 67.8667 18.08 68.8401 18.6C69.8134 19.1067 70.6467 19.8533 71.3401 20.84L69.9601 21.74C69.4134 20.9933 68.7734 20.4333 68.0401 20.06C67.3067 19.6733 66.5201 19.48 65.6801 19.48C64.9334 19.48 64.2401 19.6333 63.6001 19.94C62.9734 20.2333 62.4201 20.64 61.9401 21.16C61.4734 21.68 61.1067 22.28 60.8401 22.96C60.5867 23.6267 60.4601 24.34 60.4601 25.1C60.4601 25.8333 60.5934 26.5333 60.8601 27.2C61.1267 27.8533 61.5001 28.4333 61.9801 28.94C62.4601 29.4467 63.0134 29.8467 63.6401 30.14C64.2801 30.4333 64.9601 30.58 65.6801 30.58C66.6801 30.58 67.5067 30.4333 68.1601 30.14C68.8267 29.8467 69.4001 29.3267 69.8801 28.58V26.88H67.4201V25.32H71.5401V28.98C70.9801 30.1 70.2201 30.92 69.2601 31.44C68.3134 31.9467 67.1201 32.2 65.6801 32.2ZM81.976 32H80.396V26.04C80.396 25.1333 80.1427 24.4733 79.636 24.06C79.1293 23.6333 78.4627 23.42 77.636 23.42C77.1693 23.42 76.7293 23.52 76.316 23.72C75.916 23.9067 75.5893 24.1533 75.336 24.46C75.0827 24.7667 74.956 25.0733 74.956 25.38V32H73.376V18H74.956V22.98C75.316 22.58 75.7693 22.3 76.316 22.14C76.8627 21.98 77.376 21.9067 77.856 21.92C79.1493 21.9733 80.156 22.3533 80.876 23.06C81.6093 23.7667 81.976 24.76 81.976 26.04V32ZM88.4252 32.24C87.4652 32.24 86.6186 32.0333 85.8852 31.62C85.1652 31.2067 84.5986 30.6267 84.1852 29.88C83.7852 29.12 83.5852 28.2333 83.5852 27.22C83.5852 26.0467 83.7986 25.0667 84.2252 24.28C84.6519 23.4933 85.2252 22.9 85.9452 22.5C86.6786 22.1 87.5052 21.9 88.4252 21.9C89.3719 21.9 90.2052 22.1 90.9252 22.5C91.6586 22.9 92.2319 23.4933 92.6452 24.28C93.0586 25.0667 93.2652 26.0467 93.2652 27.22C93.2652 28.2333 93.0586 29.12 92.6452 29.88C92.2319 30.6267 91.6586 31.2067 90.9252 31.62C90.2052 32.0333 89.3719 32.24 88.4252 32.24ZM88.4252 30.72C89.1319 30.72 89.7319 30.5667 90.2252 30.26C90.7186 29.94 91.0919 29.5133 91.3452 28.98C91.5986 28.4467 91.7252 27.86 91.7252 27.22C91.7252 26.1267 91.4386 25.2267 90.8652 24.52C90.3052 23.8 89.4919 23.44 88.4252 23.44C87.3452 23.44 86.5252 23.8 85.9652 24.52C85.4052 25.24 85.1252 26.14 85.1252 27.22C85.1252 27.8733 85.2452 28.4667 85.4852 29C85.7386 29.52 86.1119 29.94 86.6052 30.26C87.0986 30.5667 87.7052 30.72 88.4252 30.72ZM105.274 18L100.914 32H99.2343L94.8743 18H96.5143L100.074 29.96L103.634 18H105.274ZM114.705 27.48H106.925C106.952 28.3467 107.185 29.0333 107.625 29.54C108.065 30.0467 108.625 30.38 109.305 30.54C109.985 30.7 110.712 30.6867 111.485 30.5C112.258 30.3133 112.992 29.96 113.685 29.44L114.525 30.68C113.872 31.1867 113.192 31.56 112.485 31.8C111.778 32.04 111.072 32.1667 110.365 32.18C108.698 32.22 107.425 31.76 106.545 30.8C105.665 29.8267 105.225 28.4733 105.225 26.74C105.225 25.26 105.638 24.08 106.465 23.2C107.305 22.32 108.518 21.8867 110.105 21.9C111.145 21.9 112.032 22.1133 112.765 22.54C113.498 22.9667 114.038 23.6 114.385 24.44C114.558 24.8533 114.665 25.3133 114.705 25.82C114.758 26.3267 114.758 26.88 114.705 27.48ZM110.185 23.38C109.278 23.38 108.505 23.62 107.865 24.1C107.238 24.5667 106.925 25.2667 106.925 26.2H113.285C113.285 25.32 113.005 24.6333 112.445 24.14C111.898 23.6333 111.145 23.38 110.185 23.38ZM116.695 32V22.12H118.275V23.04C118.715 22.5467 119.255 22.2467 119.895 22.14C120.549 22.0333 121.369 22.12 122.355 22.4L121.615 23.8C121.015 23.5867 120.455 23.5533 119.935 23.7C119.429 23.8333 119.022 24.0733 118.715 24.42C118.409 24.7667 118.262 25.14 118.275 25.54V32H116.695ZM124.63 20.68C124.337 20.68 124.084 20.58 123.87 20.38C123.67 20.1667 123.57 19.9133 123.57 19.62C123.57 19.3267 123.67 19.08 123.87 18.88C124.084 18.6667 124.337 18.56 124.63 18.56C124.924 18.56 125.17 18.6667 125.37 18.88C125.584 19.08 125.69 19.3267 125.69 19.62C125.69 19.9133 125.584 20.1667 125.37 20.38C125.17 20.58 124.924 20.68 124.63 20.68ZM125.39 32H123.89V22H125.39V32ZM133.451 19.44C132.665 19.4 132.085 19.4733 131.711 19.66C131.351 19.8333 131.111 20.12 130.991 20.52C130.885 20.9067 130.831 21.4067 130.831 22.02H132.691V23.4H130.831V32.02H129.271V23.4H127.491V22.02H129.271C129.271 21.1267 129.385 20.3667 129.611 19.74C129.851 19.1 130.271 18.62 130.871 18.3C131.485 17.98 132.345 17.8533 133.451 17.92V19.44ZM135.729 35.44V33.88C136.115 33.88 136.475 33.7933 136.809 33.62C137.142 33.46 137.422 33.24 137.649 32.96C137.875 32.6933 138.009 32.3933 138.049 32.06L134.269 22H136.009L139.009 30.14L141.829 22H143.589L140.069 31.42C139.775 32.2467 139.449 32.9533 139.089 33.54C138.729 34.14 138.282 34.6 137.749 34.92C137.229 35.2533 136.555 35.4267 135.729 35.44ZM154.687 32H152.807L149.207 26.1H146.967V32H145.387L145.407 18H150.747C151.4 18 151.987 18.1933 152.507 18.58C153.04 18.9533 153.467 19.4467 153.787 20.06C154.107 20.6733 154.267 21.34 154.267 22.06C154.267 22.6733 154.12 23.2667 153.827 23.84C153.547 24.4133 153.167 24.9 152.687 25.3C152.207 25.7 151.66 25.94 151.047 26.02L154.687 32ZM152.667 22.06C152.667 21.66 152.58 21.2733 152.407 20.9C152.233 20.5133 152 20.2 151.707 19.96C151.413 19.7067 151.073 19.58 150.687 19.58H146.967V24.48H150.647C151.02 24.48 151.353 24.3533 151.647 24.1C151.953 23.8467 152.2 23.5333 152.387 23.16C152.573 22.7867 152.667 22.42 152.667 22.06ZM164.724 27.48H156.944C156.971 28.3467 157.204 29.0333 157.644 29.54C158.084 30.0467 158.644 30.38 159.324 30.54C160.004 30.7 160.731 30.6867 161.504 30.5C162.278 30.3133 163.011 29.96 163.704 29.44L164.544 30.68C163.891 31.1867 163.211 31.56 162.504 31.8C161.798 32.04 161.091 32.1667 160.384 32.18C158.718 32.22 157.444 31.76 156.564 30.8C155.684 29.8267 155.244 28.4733 155.244 26.74C155.244 25.26 155.658 24.08 156.484 23.2C157.324 22.32 158.538 21.8867 160.124 21.9C161.164 21.9 162.051 22.1133 162.784 22.54C163.518 22.9667 164.058 23.6 164.404 24.44C164.578 24.8533 164.684 25.3133 164.724 25.82C164.778 26.3267 164.778 26.88 164.724 27.48ZM160.204 23.38C159.298 23.38 158.524 23.62 157.884 24.1C157.258 24.5667 156.944 25.2667 156.944 26.2H163.304C163.304 25.32 163.024 24.6333 162.464 24.14C161.918 23.6333 161.164 23.38 160.204 23.38ZM181.719 22L178.339 32H176.239L173.619 23.86L170.999 32H168.919L165.519 22H167.199L169.959 30.36L172.699 22H174.559L177.299 30.34L180.039 22H181.719ZM185.596 32.1C184.662 32.0733 183.882 31.8133 183.256 31.32C182.629 30.8133 182.316 30.08 182.316 29.12C182.316 28.12 182.609 27.34 183.196 26.78C183.782 26.2067 184.582 25.84 185.596 25.68C186.609 25.52 187.742 25.5533 188.996 25.78V25.06C188.996 24.5933 188.849 24.2267 188.556 23.96C188.262 23.68 187.882 23.4933 187.416 23.4C186.962 23.3067 186.482 23.3 185.976 23.38C185.482 23.4467 185.016 23.6 184.576 23.84C184.136 24.0667 183.796 24.3667 183.556 24.74L182.576 23.7C182.989 23.1933 183.489 22.8 184.076 22.52C184.676 22.24 185.296 22.06 185.936 21.98C186.576 21.9 187.196 21.92 187.796 22.04C188.396 22.16 188.922 22.38 189.376 22.7C189.816 22.9667 190.116 23.3133 190.276 23.74C190.449 24.1533 190.549 24.6333 190.576 25.18C190.602 25.7267 190.616 26.3133 190.616 26.94V32H189.016V31.06C188.522 31.42 187.976 31.6867 187.376 31.86C186.776 32.0333 186.182 32.1133 185.596 32.1ZM188.976 29.64V27.02C187.389 26.82 186.129 26.8733 185.196 27.18C184.262 27.4867 183.796 28.1267 183.796 29.1C183.796 29.5267 183.916 29.86 184.156 30.1C184.409 30.34 184.729 30.5 185.116 30.58C185.516 30.66 185.949 30.6733 186.416 30.62C186.882 30.5667 187.342 30.4533 187.796 30.28C188.249 30.1067 188.642 29.8933 188.976 29.64ZM192.613 32V22.12H194.193V23.04C194.633 22.5467 195.173 22.2467 195.813 22.14C196.467 22.0333 197.287 22.12 198.273 22.4L197.533 23.8C196.933 23.5867 196.373 23.5533 195.853 23.7C195.347 23.8333 194.94 24.0733 194.633 24.42C194.327 24.7667 194.18 25.14 194.193 25.54V32H192.613ZM202.383 31.98C201.583 31.8867 200.903 31.6067 200.343 31.14C199.796 30.6733 199.383 30.08 199.103 29.36C198.823 28.6267 198.683 27.8067 198.683 26.9C198.683 25.9267 198.856 25.0667 199.203 24.32C199.563 23.56 200.076 22.9667 200.743 22.54C201.423 22.1 202.243 21.88 203.203 21.88C203.59 21.88 203.99 21.9067 204.403 21.96C204.83 22.0133 205.29 22.1667 205.783 22.42V18H207.363V32H205.783V31.06C205.41 31.38 204.916 31.64 204.303 31.84C203.69 32.04 203.05 32.0867 202.383 31.98ZM205.783 29.72V23.92C204.823 23.52 203.923 23.3667 203.083 23.46C202.256 23.5533 201.583 23.8933 201.063 24.48C200.543 25.0533 200.283 25.86 200.283 26.9C200.283 27.74 200.436 28.4467 200.743 29.02C201.063 29.58 201.49 29.9933 202.023 30.26C202.556 30.5267 203.143 30.62 203.783 30.54C204.436 30.46 205.103 30.1867 205.783 29.72ZM209.171 30.84L210.111 29.82C210.524 30.1267 210.938 30.3667 211.351 30.54C211.764 30.7 212.184 30.7733 212.611 30.76C212.864 30.76 213.104 30.7267 213.331 30.66C213.558 30.5933 213.771 30.48 213.971 30.32C214.224 30.1333 214.391 29.8933 214.471 29.6C214.564 29.3067 214.564 29.0267 214.471 28.76C214.364 28.4667 214.171 28.2333 213.891 28.06C213.611 27.8867 213.278 27.74 212.891 27.62C212.518 27.4867 212.124 27.3533 211.711 27.22C211.311 27.0733 210.938 26.8933 210.591 26.68C209.991 26.28 209.604 25.8267 209.431 25.32C209.258 24.8 209.258 24.2933 209.431 23.8C209.618 23.2933 209.944 22.8667 210.411 22.52C210.891 22.1733 211.484 21.9733 212.191 21.92C212.871 21.88 213.531 21.96 214.171 22.16C214.811 22.36 215.311 22.64 215.671 23L214.671 23.96C214.338 23.7333 213.978 23.5667 213.591 23.46C213.204 23.3533 212.831 23.3 212.471 23.3C212.044 23.3133 211.678 23.4133 211.371 23.6C211.078 23.7867 210.911 24.0867 210.871 24.5C210.844 24.8867 210.971 25.1933 211.251 25.42C211.531 25.6333 211.918 25.8267 212.411 26C212.904 26.16 213.438 26.3467 214.011 26.56C214.678 26.8267 215.191 27.2133 215.551 27.72C215.924 28.2133 216.038 28.8467 215.891 29.62C215.798 30.34 215.504 30.9067 215.011 31.32C214.531 31.7333 213.944 31.9933 213.251 32.1C212.558 32.2067 211.844 32.16 211.111 31.96C210.391 31.7467 209.744 31.3733 209.171 30.84Z" fill="#29F0FC"/>
<path d="M23.6412 0.010726C22.9613 0.11433 22.4436 0.506545 22.1886 1.11337L22.0959 1.33538V2.81913V4.30289L22.2118 4.4472C22.3547 4.6285 23.931 6.16406 23.9774 6.16406C24.016 6.16406 25.4416 4.79501 25.6889 4.5175L25.882 4.30289V2.81913V1.33538L25.7623 1.09487C25.4261 0.421442 24.8428 0.0403271 24.0933 0.00702572C23.9078 -0.00407457 23.7069 -0.000374317 23.6412 0.010726Z" fill="#29F0FC"/>
<path d="M18.4179 2.42343C17.7611 2.60473 17.1662 3.08205 16.8764 3.66667C16.7451 3.93308 16.6292 4.3956 16.6292 4.64351C16.633 5.06163 16.8494 5.70545 17.0773 5.97926C17.4289 6.39738 17.7766 6.64899 18.2247 6.81179C18.4759 6.9006 18.5145 6.9043 19.4031 6.9043C20.4539 6.9043 20.4926 6.8932 20.6394 6.59348C20.7244 6.42698 20.7244 6.39368 20.7244 4.59171C20.7244 2.84524 20.7205 2.74904 20.6471 2.61583C20.5196 2.37162 20.4269 2.35312 19.4803 2.35682C18.8158 2.35682 18.6111 2.37162 18.4179 2.42343Z" fill="#29F0FC"/>
<path d="M27.6244 2.40915C27.5394 2.43875 27.4273 2.50165 27.3732 2.55345L27.2728 2.64966L27.2419 3.8374C27.2264 4.49233 27.2264 5.36926 27.2419 5.79108C27.2805 6.63471 27.296 6.68281 27.5509 6.83452C27.6823 6.91222 27.7248 6.91592 28.5941 6.90852C29.4981 6.90112 29.5058 6.90112 29.8188 6.79012C30.3171 6.61621 30.7499 6.2684 30.9739 5.86878C31.001 5.81698 31.0435 5.74298 31.0667 5.70228C31.5264 4.90674 31.3989 3.95581 30.7383 3.18248C30.4253 2.81616 29.9579 2.52755 29.4942 2.40915C29.2006 2.33515 27.8407 2.33515 27.6244 2.40915Z" fill="#29F0FC"/>
<path d="M14.5468 5.59779C14.3884 5.6274 14.1644 5.7939 14.0948 5.93451C13.8321 6.46733 14.2146 7.02975 14.798 6.96685C14.9989 6.94835 15.2152 6.80034 15.3311 6.60793C15.4779 6.37112 15.4084 5.91231 15.2075 5.7569C15.0259 5.6163 14.7632 5.55339 14.5468 5.59779Z" fill="#29F0FC"/>
<path d="M32.8747 5.69107C32.5888 5.89457 32.4652 6.17208 32.5425 6.44589C32.7318 7.10082 33.5392 7.18222 33.8908 6.5828C33.9565 6.4681 33.9487 6.10918 33.8792 5.98338C33.8483 5.92418 33.7517 5.81687 33.659 5.74287C33.5083 5.61706 33.4813 5.60966 33.2456 5.60966C33.0447 5.61336 32.9636 5.62816 32.8747 5.69107Z" fill="#29F0FC"/>
<path d="M22.1113 6.11622C21.9993 6.13472 21.837 6.25683 21.7752 6.37523C21.6979 6.51214 21.7211 6.75264 21.8215 6.91915C21.8756 7.00425 22.2117 7.34097 22.5749 7.67398C23.2742 8.3141 23.4867 8.55461 23.4905 8.71372C23.4905 8.76552 23.4944 9.14294 23.4983 9.55365L23.506 10.2937L23.6451 10.4491C23.7726 10.5971 23.7957 10.6045 23.9889 10.6045C24.1859 10.6045 24.2014 10.5971 24.3521 10.4343L24.5105 10.2604V9.43895C24.5105 8.78032 24.5221 8.59532 24.5684 8.50651C24.5993 8.44361 24.7616 8.2734 24.9277 8.1254C26.1061 7.06716 26.2799 6.85625 26.2297 6.56394C26.1949 6.38263 25.967 6.14952 25.7931 6.11622C25.4956 6.05702 25.5072 6.04962 24.3019 7.17446C24.1512 7.31137 24.0082 7.41867 23.9851 7.41497C23.958 7.40757 23.6798 7.16336 23.363 6.86735C23.0501 6.57134 22.7294 6.28273 22.656 6.23093C22.517 6.13102 22.2967 6.08292 22.1113 6.11622Z" fill="#29F0FC"/>
<path d="M11.0466 7.03463C11.0272 7.03833 10.9075 7.07533 10.7838 7.10863C10.3164 7.24184 9.86048 7.68586 9.66345 8.19648C9.6055 8.35558 9.58618 8.49249 9.58618 8.7922C9.58618 9.13261 9.59777 9.21402 9.69436 9.43972C9.84117 9.79124 10.0421 10.0428 10.3318 10.2353C10.4052 10.2834 10.4748 10.3352 10.4864 10.3463C10.4979 10.3574 10.552 10.387 10.6138 10.4129C10.6718 10.4351 10.7645 10.4795 10.8225 10.5017C10.9616 10.5683 11.7381 10.5646 11.9158 10.498C12.3833 10.3278 12.646 10.128 12.9242 9.72833C13.0285 9.58403 13.1135 9.44342 13.1135 9.42122C13.1135 9.39902 13.1289 9.35462 13.1482 9.31762C13.3337 8.96611 13.2989 8.51469 13.0517 8.02627C12.7233 7.38244 12.109 7.01243 11.3788 7.01983C11.2165 7.01983 11.0697 7.02723 11.0466 7.03463ZM11.7072 8.14837C11.8849 8.22978 12.0588 8.42588 12.109 8.60719C12.1669 8.8144 12.1013 9.03271 11.9235 9.21031C11.6801 9.45082 11.402 9.51743 11.1122 9.40272C10.8302 9.28802 10.6795 9.07711 10.6795 8.7922C10.6795 8.57389 10.7607 8.41848 10.95 8.26678C11.2165 8.05217 11.4213 8.01887 11.7072 8.14837Z" fill="#29F0FC"/>
<path d="M36.1857 7.05277C35.5676 7.17857 34.9765 7.7373 34.8026 8.36262C34.7254 8.63643 34.7331 9.03605 34.8219 9.28395C35.0267 9.84638 35.4671 10.2682 36.0969 10.4976C36.2669 10.5605 36.943 10.5568 37.1129 10.4939C37.4761 10.3644 37.8122 10.1276 38.0324 9.84638C38.1483 9.69837 38.3106 9.33946 38.3801 9.08415C38.4767 8.72153 38.3376 8.04811 38.1213 7.8372C38.0942 7.8113 38.0711 7.7743 38.0711 7.7595C38.0711 7.68179 37.6384 7.31918 37.4336 7.22298C37.3061 7.16377 37.1709 7.10087 37.1323 7.08237C37.0279 7.03427 36.375 7.01577 36.1857 7.05277ZM36.9005 8.14801C37.2713 8.31452 37.4182 8.76223 37.1979 9.06935C36.9468 9.42826 36.5837 9.55037 36.2669 9.38016C35.9616 9.21735 35.8303 9.03235 35.8303 8.76593C35.8303 8.57353 35.8767 8.48842 36.0814 8.29232C36.3364 8.05551 36.5875 8.01111 36.9005 8.14801Z" fill="#29F0FC"/>
<path d="M17.4212 7.90999C16.8649 7.98769 16.4399 8.0987 16.154 8.2393C16.069 8.2763 15.9879 8.30961 15.9647 8.30961C15.9454 8.30961 15.8565 8.35771 15.7677 8.41321C15.6788 8.47241 15.5783 8.52791 15.5474 8.53901C15.4431 8.57602 14.9602 8.93863 14.7245 9.15694C14.4618 9.39745 13.8475 10.1116 13.8475 10.1745C13.8475 10.1967 13.3376 10.9367 13.241 11.0551C12.9512 11.4066 12.109 12.0838 11.9583 12.0838C11.9351 12.0838 11.8579 12.1171 11.7806 12.1578C11.7033 12.1985 11.6106 12.2318 11.5681 12.2318C11.5295 12.2318 11.487 12.2466 11.4754 12.2651C11.4445 12.3132 11.1856 12.3465 10.6602 12.365C10.1271 12.3835 9.94549 12.4464 9.79096 12.6647C9.59779 12.9385 9.70983 13.364 10.0266 13.5416C10.1928 13.6378 10.5714 13.6563 11.12 13.6008C11.7111 13.5453 12.0356 13.4565 12.5533 13.2123C13.4612 12.7831 14.0253 12.2503 14.8984 10.9737C15.5783 9.98207 16.1269 9.53805 16.9769 9.27534C17.4521 9.12734 17.9273 9.08664 19.125 9.08664C19.8629 9.08664 20.2956 9.07184 20.3806 9.04593C20.6549 8.95713 20.8017 8.74992 20.8017 8.45021C20.8017 8.2837 20.7824 8.2319 20.6858 8.1172C20.4656 7.86189 20.4771 7.86559 18.9897 7.86929C18.2557 7.87299 17.5487 7.89149 17.4212 7.90999Z" fill="#29F0FC"/>
<path d="M27.5819 7.91367C27.0063 8.11718 27.0835 8.99041 27.6862 9.06441C27.7789 9.07551 28.4357 9.09402 29.1466 9.10142C30.6688 9.12362 30.8542 9.15322 31.4762 9.46403C31.9823 9.71564 32.6623 10.3114 33.0293 10.822C33.6668 11.7137 33.8638 11.9468 34.4163 12.4648C34.9997 13.0162 35.7221 13.3973 36.46 13.5416C36.6146 13.5712 36.9468 13.6082 37.2018 13.623C37.7929 13.6526 37.9552 13.6156 38.1792 13.3936C38.3376 13.2345 38.3415 13.2234 38.3415 12.9866C38.3415 12.7461 38.3415 12.7461 38.1483 12.5647L37.959 12.3797H37.6577C37.2675 12.376 36.6687 12.2835 36.3519 12.1762C35.8882 12.0208 35.2933 11.6101 34.9108 11.1846C34.6867 10.933 34.169 10.2226 34.169 10.1671C34.169 10.1449 34.1536 10.1227 34.1381 10.1153C34.1188 10.1079 34.0338 10.0005 33.9449 9.87474C33.7247 9.56023 33.2109 9.05331 32.8786 8.8165C32.643 8.6463 32.0712 8.30959 32.021 8.30959C32.0132 8.30959 31.9205 8.27628 31.8201 8.23188C31.3719 8.04317 31.3371 8.03207 30.5915 7.90627C30.2747 7.85077 27.7403 7.85817 27.5819 7.91367Z" fill="#29F0FC"/>
<path d="M6.93972 9.51234C6.50315 9.64555 6.02409 9.96746 5.88887 10.2191C5.85796 10.2783 5.81933 10.3338 5.80774 10.3449C5.75751 10.3893 5.61457 10.7889 5.5798 10.9924C5.49094 11.5104 5.73433 12.132 6.17862 12.5243C6.39111 12.7056 6.81609 12.935 6.95131 12.935C6.98994 12.935 7.08653 12.9535 7.17152 12.9794C7.29129 13.0127 7.39173 13.0127 7.61968 12.9757C8.33827 12.861 8.83665 12.4355 9.138 11.6769C9.21913 11.4771 9.19595 10.8888 9.10323 10.6483C8.85983 10.0378 8.41554 9.65295 7.78967 9.50864C7.51536 9.44574 7.15607 9.44944 6.93972 9.51234Z" fill="#29F0FC"/>
<path d="M40.138 9.5052C39.825 9.594 39.5198 9.76791 39.288 9.99362C39.0369 10.2378 38.9094 10.445 38.8244 10.7706C38.5656 11.7142 39.1914 12.6984 40.2191 12.9685C40.7291 13.1017 41.5133 12.8464 41.9383 12.4098C42.1933 12.1434 42.4367 11.581 42.4367 11.2591C42.4367 11.0593 42.3324 10.7003 42.1972 10.4339C41.9924 10.0306 41.5983 9.69391 41.1618 9.5533C40.9029 9.4719 40.3504 9.446 40.138 9.5052Z" fill="#29F0FC"/>
<path d="M18.5802 10.3146C18.3097 10.3479 18.2363 10.3627 17.9041 10.4589C17.6414 10.5329 16.8764 10.9214 16.5867 11.1249C16.293 11.3321 15.814 11.7983 15.6247 12.0647C15.5513 12.1683 15.4276 12.3311 15.3465 12.4348C15.2654 12.5347 15.1997 12.6346 15.1997 12.6568C15.1997 12.6753 15.1495 12.7493 15.0877 12.8196C15.0258 12.8899 14.9524 12.9898 14.9215 13.0416C14.8211 13.2303 14.3111 13.7742 14.0523 13.974C13.6118 14.3144 13.3259 14.4809 12.901 14.6548C12.816 14.6881 12.7155 14.7325 12.6808 14.751C12.6421 14.7695 12.5842 14.7843 12.5533 14.7843C12.5224 14.7843 12.4644 14.7991 12.4258 14.8176C12.2133 14.9212 11.9197 14.9323 9.62093 14.9323C7.38788 14.9323 7.23721 14.936 7.07881 15.0027C6.8161 15.11 6.7002 15.2839 6.7002 15.5651C6.7002 15.7982 6.81996 16.0202 6.98609 16.0942C7.08267 16.1349 7.51537 16.1497 9.34663 16.1645C11.599 16.1793 12.2094 16.1608 12.6112 16.0535C13.0053 15.9499 13.0555 15.9388 13.1714 15.9018C14.0445 15.6317 14.9756 14.999 15.6247 14.2293C15.7213 14.1183 15.8062 14.0184 15.8178 14.0073C15.8565 13.9703 16.1655 13.5337 16.1655 13.5115C16.1655 13.4634 16.6832 12.7863 16.8996 12.5569C17.0773 12.3645 17.6143 11.9611 17.8654 11.8316C18.4295 11.5393 18.5531 11.5171 19.4881 11.5097C20.3805 11.5023 20.4578 11.4875 20.6316 11.2988C20.763 11.1619 20.8016 11.0657 20.8016 10.8696C20.8016 10.7179 20.7823 10.6661 20.6626 10.5366C20.4423 10.2887 20.3573 10.2702 19.5499 10.2776C19.1674 10.2776 18.7308 10.2961 18.5802 10.3146Z" fill="#29F0FC"/>
<path d="M27.6437 10.3256C27.211 10.4736 27.041 10.9065 27.2767 11.2543C27.4157 11.4504 27.5085 11.4689 28.4898 11.4911C29.0577 11.5059 29.4247 11.5281 29.4749 11.5541C29.5174 11.5763 29.6565 11.6355 29.784 11.6799C29.9115 11.7243 30.0583 11.7909 30.1124 11.8242C30.1665 11.8538 30.2553 11.9056 30.3094 11.9315C30.3635 11.9574 30.4562 12.0129 30.5103 12.0573C30.5644 12.1017 30.6958 12.2053 30.7962 12.2867C30.9894 12.4421 31.3487 12.8047 31.4916 12.9897C31.538 13.0526 31.6307 13.1747 31.7041 13.2672C31.7737 13.3597 31.9089 13.541 32.0016 13.6742C32.5 14.3736 33.0486 14.9138 33.6938 15.3319C33.914 15.4762 34.6751 15.8536 34.8451 15.9054C34.8876 15.9165 35.0807 15.972 35.27 16.0238L35.6178 16.1237L38.1676 16.157C40.0259 16.1792 40.76 16.1792 40.8797 16.1496C41.3086 16.0386 41.4863 15.5428 41.2197 15.2061C41.1695 15.1432 41.0497 15.0544 40.9531 15.01C40.7793 14.9323 40.7445 14.9323 38.4767 14.9323C36.9429 14.9323 36.1161 14.9175 35.9964 14.8916C35.6796 14.8213 35.5057 14.7769 35.4169 14.7436C35.3666 14.7251 35.2894 14.6955 35.243 14.677C34.3428 14.3366 33.6281 13.7482 32.9945 12.838C32.218 11.7243 31.8046 11.3061 31.0782 10.8769C30.7808 10.703 30.3326 10.4921 30.2592 10.4921C30.2283 10.4921 30.1897 10.4773 30.1703 10.4625C30.1317 10.4292 29.9192 10.3848 29.4788 10.3071C29.1581 10.2553 27.8098 10.2664 27.6437 10.3256Z" fill="#29F0FC"/>
<path d="M23.2934 12.4908C23.2316 12.5056 23.0925 12.5204 22.9882 12.5241C22.8839 12.5241 22.7371 12.5426 22.6598 12.5611C22.5826 12.5796 22.4242 12.6129 22.3083 12.6388C22.0571 12.6869 21.8176 12.7461 21.7094 12.7868C21.6669 12.8053 21.5279 12.8534 21.4004 12.9015C20.2761 13.3159 19.1364 14.1263 18.3444 15.0809C18.0662 15.4102 17.8653 15.6914 17.8653 15.7395C17.8653 15.7617 17.8538 15.7839 17.8383 15.7913C17.7881 15.8098 17.479 16.376 17.3592 16.6609C17.3013 16.8052 17.2472 16.9273 17.2124 17.0124C17.1931 17.0605 17.1661 17.1382 17.1506 17.19C17.139 17.2418 17.0927 17.4083 17.0502 17.56C16.9188 18.0484 16.8609 18.5331 16.8609 19.14C16.8647 19.4619 16.8802 19.7986 16.8995 19.8911C16.9188 19.9836 16.9188 20.0687 16.9072 20.0798C16.8918 20.0946 16.2929 20.1131 15.5705 20.1242L14.2646 20.1427L14.141 20.2574L14.0213 20.3721L14.0097 25.1564C13.9981 29.8445 14.0058 30.2922 14.1217 30.8805C14.2376 31.4873 14.5119 32.3828 14.7051 32.8046C14.933 33.2967 15.0798 33.589 15.215 33.8036C15.4739 34.2143 15.9491 34.8804 16.2079 35.1912C16.49 35.5353 17.1545 36.1828 17.5176 36.4714C17.6567 36.5824 17.7765 36.6786 17.7881 36.6897C17.7997 36.7008 17.8692 36.7526 17.9426 36.8007C18.016 36.8488 18.0856 36.9006 18.0972 36.9117C18.1165 36.9302 18.4951 37.1708 18.8235 37.3669C19.0437 37.5038 20.0714 37.9885 20.3572 38.0921C20.4847 38.1402 20.6238 38.192 20.6663 38.2068C20.9329 38.3141 21.6167 38.4954 22.0378 38.5731C22.7139 38.6952 23.023 38.7248 23.8729 38.747C24.6147 38.7692 24.8504 38.7544 25.5535 38.6471C26.1794 38.5509 26.7744 38.4103 27.1182 38.2808C27.1607 38.266 27.2573 38.2327 27.3307 38.2068C27.4041 38.1809 27.5393 38.1291 27.6282 38.0921C27.7209 38.0514 27.802 38.0218 27.8136 38.0218C27.86 38.0218 28.4936 37.7258 28.7988 37.5593C29.3319 37.2707 30.0389 36.8007 30.4369 36.4677C31.1439 35.8757 31.6345 35.3947 31.9938 34.9285C32.0402 34.8693 32.1368 34.7435 32.2102 34.651C32.6158 34.1366 33.091 33.3152 33.3615 32.664C33.3808 32.6196 33.4117 32.5456 33.4349 32.4975C33.4928 32.368 33.6744 31.8351 33.7092 31.6945C33.7246 31.6242 33.7594 31.491 33.7826 31.3985C33.8367 31.1802 33.8985 30.8176 33.941 30.4735C33.9989 30.011 34.0337 20.5793 33.9758 20.4498C33.9526 20.3906 33.8792 20.2944 33.8174 20.2389L33.7015 20.1316H32.4111C31.0512 20.1316 30.9893 20.1242 31.0743 19.9725C31.1284 19.8726 31.1323 18.6108 31.0782 18.2519C30.9778 17.597 30.8541 17.1715 30.5721 16.5462C30.0544 15.3843 29.1465 14.3557 28.0068 13.6378C26.7357 12.8349 25.4067 12.4464 23.9773 12.4575C23.6643 12.4612 23.3591 12.476 23.2934 12.4908ZM24.8388 14.9625C25.7274 15.1364 26.5232 15.5656 27.1878 16.2242C27.9141 16.9458 28.3004 17.708 28.4511 18.7255C28.4974 19.0216 28.482 20.0354 28.4318 20.1131C28.3931 20.1723 19.5962 20.1649 19.5343 20.1057C19.4764 20.0502 19.4725 19.1955 19.5266 18.7255C19.6039 18.078 19.7043 17.7931 20.1602 16.9421C20.1834 16.894 20.2143 16.857 20.2336 16.857C20.2491 16.857 20.2607 16.8348 20.2607 16.8089C20.2645 16.672 21.0411 15.9097 21.4583 15.6396C21.7442 15.4546 22.1653 15.24 22.4049 15.1549C22.5285 15.1105 22.938 15.0032 23.2162 14.9366C23.4055 14.8922 24.5761 14.9107 24.8388 14.9625ZM24.5684 24.3128C25.3295 24.4978 25.9824 25.0639 26.2296 25.7558C26.361 26.1258 26.4112 26.6846 26.3301 26.9362C26.3108 26.9991 26.2721 27.1249 26.2451 27.2174C26.0751 27.802 25.6347 28.3015 25.0436 28.579C24.8543 28.6678 24.7036 28.7529 24.7036 28.7751C24.7036 28.7936 24.719 28.838 24.7383 28.875C24.7693 28.9305 24.8079 29.0711 24.9354 29.5855C24.9624 29.6965 25.0358 29.9518 25.1672 30.381C25.1865 30.4402 25.2367 30.6178 25.2792 30.7695C25.3179 30.9212 25.3835 31.1432 25.4144 31.2579C25.4492 31.3763 25.4994 31.5613 25.5303 31.6649C25.6153 31.961 25.8974 32.9045 25.9824 33.1635C26.1176 33.589 26.3494 33.5446 24.0429 33.5446H22.0262L22.0533 33.3855C22.0687 33.3004 22.0958 33.1783 22.1151 33.1191C22.1344 33.0562 22.1653 32.9378 22.1885 32.849C22.2658 32.5641 22.3083 32.3976 22.343 32.257C22.4126 31.9832 22.4705 31.787 22.5053 31.7019C22.5246 31.6538 22.5401 31.5761 22.5401 31.528C22.5401 31.4799 22.5555 31.4318 22.5748 31.4207C22.5942 31.4096 22.6173 31.3467 22.6289 31.2801C22.6521 31.1506 22.7062 30.9397 22.768 30.7325C22.8453 30.4698 22.8955 30.3033 22.9264 30.1775C22.9419 30.1072 23.0307 29.7816 23.1196 29.456C23.2084 29.1303 23.2896 28.8306 23.2973 28.7899C23.3128 28.7307 23.2741 28.6974 23.1119 28.6271C22.4164 28.32 21.9567 27.8205 21.7249 27.1249C21.6476 26.8955 21.6592 26.1332 21.7442 25.9038C21.8292 25.6707 22.0069 25.3155 22.0456 25.3007C22.061 25.2933 22.0765 25.2711 22.0765 25.2489C22.0765 25.1823 22.3778 24.8641 22.5942 24.705C22.8491 24.5163 23.135 24.3831 23.4209 24.3128C23.7184 24.2462 24.2863 24.2462 24.5684 24.3128Z" fill="#29F0FC"/>
<path d="M43.5726 13.2388C43.3485 13.2906 43.0587 13.5126 42.9583 13.7124C42.7999 14.0195 42.7728 14.1379 42.8231 14.3673C42.9003 14.7188 43.0626 14.9408 43.3639 15.111C43.5146 15.1998 43.5803 15.2109 43.8662 15.2109C44.1559 15.2109 44.2177 15.1998 44.3761 15.111C44.5616 15.0037 44.747 14.815 44.832 14.6448C44.8591 14.5893 44.8938 14.5153 44.9132 14.482C44.9634 14.3895 44.9557 14.0898 44.9016 13.9381C44.7779 13.594 44.5191 13.3572 44.1559 13.2499C43.9396 13.187 43.8044 13.187 43.5726 13.2388Z" fill="#29F0FC"/>
<path d="M3.764 13.2571C3.47811 13.3496 3.19994 13.5901 3.08791 13.8491C3.00291 14.0341 3.02609 14.4523 3.12654 14.6521C3.21153 14.8186 3.47038 15.085 3.60947 15.1442C3.93786 15.2848 4.13489 15.2996 4.42851 15.1923C5.12779 14.9407 5.37118 14.097 4.89598 13.5679C4.69508 13.3385 4.43237 13.2312 4.09239 13.2349C3.94558 13.2349 3.79491 13.246 3.764 13.2571Z" fill="#29F0FC"/>
<path d="M3.91853 16.6494C3.58242 16.7197 3.42015 16.79 3.19608 16.9602C2.84837 17.2266 2.66679 17.6336 2.67065 18.1331C2.67065 18.381 2.68997 18.4698 2.79042 18.677C2.94882 19.0101 3.24244 19.3061 3.56696 19.4578C3.80263 19.5651 3.85286 19.5762 4.20829 19.5762C4.56759 19.5762 4.61395 19.5651 4.85348 19.4504C5.17028 19.3024 5.44072 19.0323 5.6223 18.6844C5.74593 18.455 5.75365 18.4106 5.75365 18.0813C5.75365 17.7594 5.74206 17.7039 5.63002 17.4819C5.3789 16.9935 5.03506 16.7419 4.47873 16.6494C4.16579 16.5939 4.19284 16.5939 3.91853 16.6494Z" fill="#29F0FC"/>
<path d="M43.4604 16.6501C42.9852 16.7537 42.6298 17.009 42.4443 17.3865C42.1816 17.9193 42.1816 18.2449 42.4443 18.774C42.595 19.0737 42.8384 19.3031 43.1629 19.4548C43.3909 19.5584 43.4604 19.5732 43.7502 19.5732C43.9318 19.5732 44.1404 19.551 44.2138 19.5251C44.8126 19.3068 45.0985 19.0293 45.3689 18.4003C45.4462 18.2153 45.4114 17.8934 45.284 17.5974C45.0521 17.0497 44.7006 16.7685 44.1056 16.6501C43.812 16.5909 43.7309 16.5909 43.4604 16.6501Z" fill="#29F0FC"/>
<path d="M7.7433 17.6011C7.29128 17.775 7.2256 18.3337 7.62353 18.6593C7.72398 18.7444 7.73171 18.7444 9.28866 18.7518L10.8533 18.7629L10.8727 21.649C10.892 24.4427 10.8958 24.5389 10.9692 24.6832C11.201 25.1198 11.8462 25.0976 12.0355 24.6462C12.0665 24.5648 12.0858 23.7618 12.1051 21.649L12.1283 18.7629L13.3066 18.7444C14.1566 18.7296 14.5081 18.7111 14.5699 18.6778C14.6936 18.6112 14.852 18.3337 14.852 18.182C14.852 18.0229 14.7708 17.8231 14.6704 17.7417C14.4502 17.553 14.597 17.5604 11.0967 17.5641C9.02981 17.5641 7.80511 17.5789 7.7433 17.6011Z" fill="#29F0FC"/>
<path d="M33.4273 17.6337C33.2032 17.7484 33.1066 17.9075 33.1066 18.1702C33.1066 18.3441 33.1259 18.4181 33.1955 18.5106C33.3616 18.7326 33.4118 18.7437 34.7099 18.7511L35.8883 18.7622L35.9076 21.7039C35.9308 24.9711 35.9076 24.7232 36.1935 24.9082C36.4523 25.0784 36.7923 25.0007 37.0048 24.7269C37.0859 24.6233 37.0859 24.5937 37.1053 21.6928L37.1246 18.7622L38.6893 18.7548C39.8328 18.7474 40.281 18.7326 40.3505 18.6993C40.7253 18.5217 40.8373 18.0999 40.5939 17.7891C40.4046 17.5486 40.5669 17.5597 36.8966 17.5597C33.6823 17.5634 33.5664 17.5671 33.4273 17.6337Z" fill="#29F0FC"/>
<path d="M0.916607 19.0859C0.704119 19.3116 0.692529 19.5188 0.881836 19.7297C0.997738 19.8592 1.03251 19.874 1.18705 19.874C1.4034 19.874 1.55021 19.7778 1.65065 19.578C1.74724 19.3893 1.68929 19.2043 1.49998 19.0859C1.3184 18.9712 1.02478 18.9712 0.916607 19.0859Z" fill="#29F0FC"/>
<path d="M46.5821 19.0639C46.2305 19.2082 46.2808 19.7632 46.6555 19.8557C47.0264 19.9556 47.3471 19.63 47.2234 19.2748C47.1887 19.1749 47.1423 19.1305 47.0071 19.075C46.8062 18.9936 46.7521 18.9899 46.5821 19.0639Z" fill="#29F0FC"/>
<path d="M7.51924 20.1506C7.4497 20.1913 7.3647 20.2875 7.3338 20.3615C7.27971 20.4799 7.27971 20.5095 7.33766 20.6501C7.42652 20.8832 7.51924 20.9424 7.76263 20.9424C8.01762 20.9424 8.13739 20.8536 8.20693 20.6131C8.24556 20.4836 8.24556 20.4281 8.20693 20.3467C8.09489 20.1062 7.75491 20.0062 7.51924 20.1506Z" fill="#29F0FC"/>
<path d="M39.9255 20.1246C39.8058 20.1838 39.6551 20.3947 39.6551 20.5094C39.6551 20.8831 40.1419 21.0904 40.4316 20.8387C40.7021 20.6056 40.6673 20.3059 40.3505 20.1505C40.1767 20.0654 40.0607 20.058 39.9255 20.1246Z" fill="#29F0FC"/>
<path d="M4.01511 21.1552C3.71762 21.2255 3.5515 21.2662 3.47423 21.2958C3.43173 21.3143 3.32742 21.3513 3.24242 21.3772C2.70155 21.5437 1.98682 22.0506 1.98682 22.2689C1.98682 22.3022 2.22635 22.5501 2.5161 22.8202C2.80972 23.0903 3.40469 23.6491 3.84512 24.0635C4.28554 24.4779 4.67575 24.8368 4.71438 24.8664C4.87665 24.9848 4.98482 24.9367 5.35957 24.5963C6.66154 23.4122 7.68148 22.4502 7.70853 22.3762C7.83988 22.0469 6.87789 21.4068 5.98544 21.2292C5.88113 21.207 5.69955 21.17 5.58751 21.1515C5.33639 21.1034 4.22759 21.1071 4.01511 21.1552Z" fill="#29F0FC"/>
<path d="M42.6878 21.3201C42.2551 21.3645 42.1237 21.3867 41.7799 21.4755C40.9377 21.6939 40.0491 22.2119 39.4 22.8557C38.7896 23.4699 38.3531 24.221 38.1869 24.9611C38.1638 25.0721 38.1251 25.2238 38.1058 25.2978C38.0556 25.4828 38.0633 26.726 38.1135 26.9666C38.1792 27.2848 38.2603 27.5549 38.3415 27.7547C38.4381 27.9841 38.6699 28.417 38.7703 28.5502C38.9983 28.8536 39.4271 28.9276 39.7207 28.713C39.8637 28.6094 40.0027 28.3763 40.0027 28.2431C40.0027 28.195 39.9177 27.9989 39.8134 27.8065C39.5546 27.3329 39.4696 27.0739 39.4232 26.6002C39.3344 25.6715 39.5391 24.8427 40.0298 24.1433C40.223 23.8732 40.7329 23.37 40.9531 23.2368C41.015 23.1998 41.0729 23.1591 41.0845 23.148C41.1038 23.1295 41.3974 22.9741 41.5095 22.9223C41.5636 22.9001 41.6215 22.8742 41.8688 22.7817C42.3749 22.5856 43.1437 22.4894 43.6653 22.556C43.9743 22.5967 44.4341 22.7003 44.6195 22.7743C44.8668 22.8742 44.9247 22.889 45.0368 22.889C45.2956 22.889 45.6433 22.5671 45.6433 22.3229C45.6433 22.1712 45.539 21.9825 45.3883 21.8567C45.0677 21.5828 44.3491 21.3682 43.5957 21.3164C43.4141 21.3016 43.2403 21.2868 43.2094 21.2831C43.1785 21.2757 42.9428 21.2942 42.6878 21.3201Z" fill="#29F0FC"/>
<path d="M0.823915 23.4555C0.572793 23.6591 0.267584 24.2474 0.140091 24.7765C0.116911 24.869 0.0744132 25.0355 0.0473693 25.1465C-0.0183086 25.424 -0.0144452 26.5008 0.0512328 26.8116C0.217359 27.5775 0.708012 28.5506 1.03254 28.7542C1.10981 28.8023 1.62364 28.8097 4.92299 28.8097C9.2616 28.8134 8.7864 28.8541 9.08388 28.4544C9.31955 28.1399 9.52045 27.7292 9.66339 27.2815C9.95701 26.3454 9.85657 24.9282 9.43545 24.0772C9.20365 23.611 8.96798 23.3704 8.74004 23.3704C8.60482 23.3704 8.54687 23.4185 7.63897 24.2881C7.11354 24.7913 6.28291 25.572 5.79999 26.016C5.3132 26.4638 4.90754 26.8375 4.89981 26.8449C4.89208 26.856 4.60233 26.5933 4.25462 26.2677C3.91078 25.942 3.38535 25.4499 3.08787 25.1798C2.79425 24.906 2.24179 24.388 1.86317 24.0254C1.25662 23.4481 1.15617 23.3704 1.04799 23.3704C0.974588 23.3704 0.881866 23.4037 0.823915 23.4555Z" fill="#29F0FC"/>
<path d="M47.011 23.8103C46.9453 23.8473 46.8526 23.9324 46.8063 23.9916C46.729 24.0989 46.7251 24.1359 46.7251 25.2829C46.7251 26.8481 46.6595 27.2625 46.3272 27.9026C45.9215 28.6833 45.2725 29.3087 44.5037 29.6565C44.3569 29.7231 44.2023 29.7934 44.1676 29.8119C44.1289 29.8304 44.0632 29.8452 44.0246 29.8452C43.9821 29.8452 43.9396 29.86 43.928 29.8785C43.9164 29.897 43.8392 29.9229 43.7619 29.934C43.6808 29.9488 43.5185 29.9784 43.4026 30.0006C43.2597 30.0265 42.1586 30.045 40.0607 30.0524C37.8354 30.0635 36.9043 30.0783 36.8348 30.1079C36.7807 30.1338 36.6996 30.1671 36.6494 30.1893C36.406 30.3003 36.1742 30.5778 36.0776 30.8812C36.0621 30.933 36.0351 31.3548 36.0196 31.8248C35.9926 32.6314 35.9694 32.8571 35.8728 33.2493C35.8342 33.4047 35.811 33.4824 35.7183 33.8117C35.6835 33.9412 35.6487 34.0374 35.5985 34.1559C35.5831 34.1966 35.529 34.3298 35.4787 34.4519C35.3358 34.8071 34.8258 35.6766 34.5554 36.0244C34.227 36.4462 34.1459 36.5461 33.9643 36.746C33.5393 37.2159 32.7473 37.93 32.2567 38.2815C32.1292 38.374 32.0017 38.4665 31.9669 38.4924C31.5844 38.7773 31.0976 39.0955 31.0436 39.0955C31.0204 39.0955 31.0011 39.1066 31.0011 39.1251C31.0011 39.1399 30.9431 39.1769 30.8774 39.2028C30.8079 39.2324 30.6727 39.2991 30.5761 39.3546C29.9927 39.6765 28.7526 40.0872 27.7944 40.2722C27.099 40.4091 27.072 40.4091 24.2015 40.4091C21.0605 40.4091 21.0914 40.4128 19.9131 40.1427C18.785 39.8837 17.5564 39.4027 16.7721 38.9105C16.606 38.8106 16.463 38.7255 16.4515 38.7255C16.4205 38.7255 15.9801 38.4332 15.6826 38.2149C14.6202 37.4379 13.6543 36.424 13.098 35.5027C12.8662 35.1216 12.4915 34.3557 12.3756 34.0337C12.1438 33.3862 12.0703 32.9015 12.0394 31.8063L12.0124 30.896L11.8849 30.6518C11.7535 30.3965 11.4947 30.1412 11.3711 30.1412C11.3324 30.1412 11.2899 30.1227 11.2783 30.1042C11.2629 30.0783 9.81798 30.0672 7.07109 30.0672C2.46591 30.0672 2.75953 30.0524 2.54704 30.2929C2.42728 30.4335 2.39637 30.5445 2.42728 30.7554C2.45818 30.97 2.49682 31.0403 2.67067 31.1661L2.80975 31.2697L6.75043 31.2808C9.45482 31.2882 10.7104 31.303 10.7413 31.3289C10.78 31.3585 10.7954 31.5991 10.807 32.2614C10.8263 33.105 10.8534 33.3973 10.9461 33.7488C11.035 34.0893 11.0736 34.2114 11.1431 34.3779C11.1586 34.4186 11.1934 34.5111 11.2204 34.5814C11.2474 34.6517 11.2822 34.7442 11.2977 34.7849C11.317 34.8256 11.3633 34.9329 11.3981 35.0254C11.5179 35.3103 11.8888 35.9911 12.0897 36.2945C12.3446 36.6757 12.8353 37.3158 13.1057 37.6155C13.3298 37.8634 14.0523 38.5627 14.2532 38.7255C15.5667 39.7764 16.6408 40.4017 18.02 40.9049C18.2016 40.9715 18.3793 41.0418 18.4141 41.0603C18.4527 41.0788 18.5145 41.0936 18.5531 41.0936C18.5918 41.0936 18.6381 41.1084 18.6613 41.1232C18.6806 41.1417 18.7734 41.175 18.8699 41.2046C18.9665 41.2305 19.1172 41.2749 19.2099 41.3008C19.3606 41.3489 19.8358 41.4525 20.4926 41.582C20.8596 41.6523 27.3347 41.6523 27.7558 41.582C28.0533 41.5302 28.6135 41.4081 28.8182 41.3489C29.2973 41.212 29.5832 41.1121 30.325 40.8346C30.8736 40.6311 31.5612 40.2796 32.1987 39.88C32.5812 39.6432 33.18 39.2324 33.2418 39.1695C33.2534 39.1584 33.3577 39.077 33.4736 38.9845C33.7904 38.7403 34.6867 37.893 34.9379 37.6007C36.0273 36.3278 36.6725 35.1623 37.0473 33.7858C37.2134 33.1864 37.2598 32.8386 37.2868 32.0949C37.3023 31.625 37.3255 31.3474 37.3525 31.3252C37.3795 31.3067 38.639 31.2845 40.4471 31.2771C43.6228 31.2623 43.561 31.266 44.1366 31.1106C44.6389 30.9737 45.1411 30.7739 45.3729 30.6222C45.427 30.5852 45.5391 30.5186 45.6202 30.4742C46.107 30.2152 47.0265 29.3087 47.2737 28.8461C47.3008 28.7943 47.3317 28.7462 47.3471 28.7351C47.3896 28.6981 47.606 28.2319 47.6794 28.0136C47.9382 27.2699 48.0001 26.8703 48.0001 25.9415C48.0001 25.2718 47.9846 25.0905 47.8803 24.369C47.8339 24.0656 47.7296 23.8917 47.5364 23.7955C47.3819 23.7178 47.154 23.7252 47.011 23.8103Z" fill="#29F0FC"/>
<path d="M44.9479 24.0685C44.7122 24.2572 43.0394 25.8594 42.9273 26.0037C42.8578 26.0925 42.7882 26.1443 42.7342 26.1443C42.6762 26.1443 42.4714 25.9741 42.089 25.6078C41.5326 25.0712 41.382 24.9602 41.2197 24.9602C41.0652 24.9602 40.8643 25.0675 40.7252 25.2193C40.5784 25.3858 40.5397 25.5338 40.5706 25.778C40.5938 25.9297 40.6479 25.9926 41.4554 26.7733C42.2899 27.5799 42.4908 27.7354 42.6994 27.7354C42.7342 27.7354 42.823 27.7058 42.8887 27.6687C43.0432 27.591 45.8249 24.9417 45.8983 24.8048C45.964 24.6827 45.9678 24.4681 45.906 24.3571C45.7476 24.0907 45.539 23.9612 45.2685 23.9612C45.1179 23.9612 45.0561 23.9834 44.9479 24.0685Z" fill="#29F0FC"/>
<path d="M36.3325 27.4296C36.12 27.4592 35.9887 27.5517 35.8728 27.7515C35.6873 28.066 35.8457 28.5026 36.1896 28.6432C36.3789 28.7172 36.5102 28.7135 36.7034 28.6247C37.0279 28.473 37.194 28.0512 37.0356 27.7737C36.8927 27.5258 36.6223 27.3926 36.3325 27.4296Z" fill="#29F0FC"/>
<path d="M11.201 27.4881C11.0967 27.551 11.0581 27.588 10.9576 27.7249C10.8302 27.8988 10.8379 28.2244 10.9808 28.4168C11.1972 28.7129 11.5719 28.7795 11.8578 28.5723C12.0433 28.4353 12.1167 28.3206 12.136 28.1282C12.163 27.8988 12.0896 27.7212 11.9042 27.5695C11.7612 27.4511 11.7265 27.44 11.514 27.4437C11.3826 27.4437 11.2435 27.4659 11.201 27.4881Z" fill="#29F0FC"/>
<path d="M7.39169 32.7798C7.17148 32.9204 7.11739 33.0684 7.14057 33.4532C7.16761 33.9083 7.44191 34.8592 7.80121 35.7473C8.35368 37.1126 9.30794 38.5779 10.4206 39.7804C11.4985 40.9386 12.9164 42.0375 14.369 42.8331C14.4347 42.8664 14.5622 42.9404 14.6588 42.9959C14.8249 43.0884 15.6942 43.5028 15.9723 43.6175C16.0457 43.6508 16.1848 43.71 16.2814 43.7507C16.8145 43.9801 17.8886 44.3538 18.387 44.4833C18.6767 44.5573 18.8081 44.5869 19.2176 44.6609C19.3992 44.6942 19.631 44.7386 19.7314 44.7571C20.0212 44.8126 20.5157 44.8015 20.647 44.7386C20.7089 44.709 20.8093 44.6202 20.8673 44.5462C20.9561 44.4352 20.9754 44.376 20.9754 44.2021C20.9716 43.8395 20.7668 43.6619 20.2414 43.5731C19.6696 43.4806 19.3567 43.4103 18.4256 43.1698C18.2131 43.1143 17.6915 42.9441 17.6259 42.9071C17.5872 42.8849 17.5409 42.8701 17.5177 42.8701C17.4945 42.8701 17.4018 42.8368 17.3052 42.7961C17.2086 42.7554 17.0502 42.6887 16.9498 42.6443C16.4552 42.4408 16.2544 42.3483 15.6439 42.056C15.2846 41.8821 14.879 41.6675 14.7438 41.5824C14.6085 41.4973 14.481 41.427 14.4617 41.427C14.4424 41.427 14.427 41.4122 14.427 41.3974C14.427 41.3789 14.3806 41.3419 14.3226 41.3123C14.2608 41.2827 14.2067 41.2531 14.1952 41.242C14.1836 41.2309 14.1488 41.205 14.114 41.1865C14.0058 41.1236 13.4959 40.7832 13.4457 40.7425C13.4225 40.7203 13.3413 40.6611 13.2679 40.613C13.1945 40.5649 13.125 40.5131 13.1134 40.502C13.1018 40.4909 13.0554 40.4539 13.0091 40.4243C12.8082 40.2911 12.4412 39.9728 11.9544 39.5066C11.4212 38.9923 11.2937 38.8628 10.9885 38.5039C10.8919 38.3929 10.8069 38.293 10.7954 38.2819C10.7838 38.2708 10.7297 38.2042 10.6795 38.1339C10.6292 38.0636 10.5751 37.997 10.5635 37.9859C10.5288 37.96 10.1618 37.4345 10.069 37.2791C10.0265 37.2088 9.90291 37.0016 9.79087 36.8203C9.56679 36.454 9.40066 36.1432 9.21522 35.7473C9.14568 35.603 9.07614 35.4587 9.05682 35.4254C9.03364 35.3884 9.01819 35.344 9.01819 35.3218C9.01819 35.2996 8.98728 35.2145 8.94478 35.1257C8.90615 35.0406 8.85206 34.911 8.82502 34.8407C8.79797 34.7704 8.76706 34.6779 8.74775 34.6372C8.6473 34.3856 8.50049 33.8713 8.41936 33.4902C8.29959 32.9167 8.10256 32.6947 7.72394 32.6947C7.581 32.6947 7.48441 32.7169 7.39169 32.7798Z" fill="#29F0FC"/>
<path d="M39.9642 32.7588C39.8096 32.8328 39.6705 33.0141 39.6203 33.2065C39.601 33.2805 39.5199 33.6061 39.4426 33.9317C39.2996 34.509 39.1335 35.0048 38.9597 35.3785C38.9133 35.4784 38.8476 35.619 38.8167 35.6893C38.6274 36.1111 38.214 36.8622 38.0672 37.0657C38.0247 37.1176 37.9938 37.1768 37.9938 37.1953C37.9938 37.2138 37.9629 37.2619 37.9281 37.3026C37.8895 37.3396 37.8354 37.4173 37.8084 37.4691C37.6461 37.7688 36.8541 38.6975 36.2514 39.2895C35.4169 40.1184 34.9456 40.4995 33.8213 41.2654C33.1452 41.7279 32.3648 42.146 31.4453 42.542C31.3178 42.5975 31.0976 42.69 30.9508 42.7529C30.8079 42.8158 30.6727 42.8676 30.6533 42.8676C30.6302 42.8676 30.5838 42.8824 30.5452 42.9009C30.3404 43.0008 29.6179 43.2376 29.5175 43.2376C29.4827 43.2376 29.4248 43.2524 29.3861 43.2709C29.2818 43.3264 28.4396 43.4966 27.891 43.5743C27.3385 43.652 27.1376 43.8296 27.1376 44.244C27.1376 44.4919 27.1956 44.6029 27.3888 44.7176C27.5317 44.8027 27.9837 44.8212 28.343 44.7546C29.0964 44.614 29.2741 44.577 29.7261 44.4697C30.2129 44.3513 31.1594 44.0442 31.4801 43.9036C31.6231 43.8444 31.7467 43.7926 31.7544 43.7926C31.7853 43.7926 32.2798 43.5743 32.6623 43.3893C33.3152 43.0748 33.5277 42.9675 33.6938 42.8602C33.7827 42.8047 33.8638 42.7566 33.8754 42.7566C33.9372 42.7566 35.6796 41.5688 35.8303 41.4245C35.8419 41.4134 35.981 41.2987 36.1394 41.1655C36.7537 40.6586 37.6616 39.7558 38.0402 39.2784C38.5733 38.605 38.6699 38.4792 38.6892 38.4644C38.7163 38.4385 39.0447 37.9612 39.1567 37.7799C39.4117 37.3729 39.7826 36.6809 39.9023 36.3923C39.941 36.2998 39.9951 36.1666 40.0298 36.0963C40.0607 36.026 40.0994 35.9335 40.1187 35.8928C40.1341 35.8521 40.165 35.7781 40.1882 35.7263C40.2385 35.6227 40.42 35.0973 40.4703 34.9308C40.4857 34.8679 40.5205 34.7532 40.5437 34.6718C40.5668 34.5904 40.6055 34.4608 40.6248 34.3831C40.7214 34.0131 40.7446 33.9206 40.7832 33.7652C40.8025 33.6727 40.8296 33.4803 40.8373 33.3397C40.8527 33.1251 40.8411 33.0585 40.7755 32.9586C40.6132 32.707 40.2616 32.6182 39.9642 32.7588Z" fill="#29F0FC"/>
<path d="M3.85287 33.326C3.60562 33.3705 3.40472 33.4852 3.20382 33.6998C2.93725 33.9847 2.86384 34.1623 2.85998 34.5434C2.85612 34.9245 2.94884 35.1354 3.22314 35.3944C3.3854 35.5461 3.45881 35.5905 3.76788 35.7274C3.92628 35.7977 4.40148 35.757 4.62942 35.6571C4.86509 35.5498 5.18189 35.2464 5.30552 35.0133C5.55277 34.5286 5.37119 33.8848 4.896 33.537C4.79168 33.4667 4.64874 33.389 4.57533 33.3668C4.37443 33.3112 4.03832 33.289 3.85287 33.326Z" fill="#29F0FC"/>
<path d="M43.4644 33.3481C43.1244 33.4591 42.8076 33.8032 42.6724 34.2065C42.6222 34.3545 42.6144 34.7393 42.6608 34.8318C42.6801 34.8651 42.7381 34.9761 42.7883 35.0798C42.8385 35.1797 42.9621 35.3425 43.0626 35.4387C43.561 35.9049 44.3646 35.8679 44.8436 35.3573C45.1063 35.0761 45.1797 34.8984 45.1797 34.5247C45.1797 34.3508 45.1643 34.1806 45.145 34.1436C45.1256 34.1103 45.087 34.0326 45.06 33.9697C44.9595 33.7588 44.6002 33.448 44.3568 33.3629C44.0903 33.2704 43.7348 33.263 43.4644 33.3481Z" fill="#29F0FC"/>
<path d="M5.73434 36.8416C5.50253 36.9711 5.44458 37.0821 5.44458 37.3744C5.44458 37.6594 5.51412 37.837 5.7807 38.2144C5.86183 38.3291 5.92751 38.4364 5.92751 38.4475C5.92751 38.4586 5.99705 38.5696 6.08204 38.688C6.16704 38.8064 6.23658 38.9174 6.23658 38.9285C6.23658 38.947 6.79677 39.7499 7.05562 40.0977C7.17925 40.2605 7.58491 40.7601 7.62741 40.7971C7.639 40.8082 7.69695 40.8748 7.75876 40.9451C8.25328 41.5297 9.3698 42.6101 9.91454 43.0283C10.015 43.106 10.1193 43.1874 10.1463 43.2133C10.1734 43.2392 10.2932 43.3317 10.4091 43.4242C10.525 43.5167 10.6293 43.5981 10.6409 43.6092C10.7297 43.7091 11.7999 44.4306 12.2249 44.6822C12.3408 44.7488 12.5764 44.8894 12.7464 44.9893C13.3414 45.3408 13.6466 45.5037 14.4656 45.8885C15.2074 46.24 16.5017 46.7617 16.776 46.8172C16.8223 46.8283 16.8725 46.8505 16.8841 46.869C16.8957 46.8875 16.9459 46.9023 16.9962 46.9023C17.0464 46.9023 17.1005 46.9171 17.1121 46.9393C17.1237 46.9578 17.1778 46.9763 17.228 46.9763C17.2782 46.9763 17.3284 46.9911 17.34 47.0096C17.3516 47.0281 17.4096 47.0503 17.4675 47.0614C17.5293 47.0725 17.6993 47.1169 17.8461 47.1613C17.9968 47.2057 18.1745 47.2575 18.2441 47.276C18.3097 47.2945 18.4295 47.3241 18.5029 47.3463C18.8661 47.4462 18.9395 47.4647 19.0824 47.498C19.1674 47.5202 19.3258 47.5535 19.4301 47.572C20.4771 47.7829 20.8673 47.8384 22.0379 47.9494C23.0733 48.0456 25.8859 47.9975 26.8672 47.8643C27.4351 47.7903 28.4319 47.609 28.9148 47.4943C29.0114 47.4721 29.1582 47.4388 29.2432 47.4203C29.3282 47.4055 29.5368 47.3537 29.7068 47.3093C29.8768 47.2649 30.0699 47.2168 30.1318 47.202C30.2863 47.1613 31.0783 46.9097 31.1749 46.869C31.2174 46.8505 31.3565 46.7987 31.484 46.7543C31.8896 46.6137 32.7859 46.2659 33.1259 46.1179C33.6281 45.8959 34.6597 45.3963 34.7099 45.3482C34.7215 45.3371 34.8104 45.289 34.9147 45.2409C35.0151 45.1928 35.0962 45.141 35.0962 45.1299C35.0962 45.1188 35.1542 45.0818 35.2237 45.0559C35.3899 44.9819 36.3905 44.3492 36.8541 44.0162C37.2791 43.7128 37.8354 43.2762 38.1483 42.9987C38.2642 42.8951 38.4922 42.6915 38.6506 42.5509C38.809 42.4103 39.0678 42.1624 39.2262 41.9996C39.3846 41.8368 39.6203 41.5963 39.7517 41.4631C40.6402 40.5492 41.0961 39.9645 41.8495 38.762C42.5063 37.7075 42.514 37.6927 42.514 37.4262C42.514 37.0969 42.3788 36.8971 42.0813 36.7972C41.7799 36.6973 41.4477 36.9082 41.2082 37.3596C40.9879 37.7704 40.6673 38.3143 40.6209 38.355C40.6093 38.3661 40.5784 38.4179 40.5475 38.4734C40.5166 38.5326 40.478 38.577 40.4587 38.577C40.4432 38.577 40.4277 38.5992 40.4277 38.6251C40.4277 38.651 40.3968 38.7065 40.3621 38.7472C40.3234 38.7842 40.2153 38.9248 40.1187 39.058C40.026 39.1912 39.9332 39.3059 39.9178 39.3096C39.9023 39.317 39.8869 39.3392 39.8869 39.3614C39.8869 39.3836 39.8289 39.4613 39.7632 39.539C39.6937 39.613 39.5508 39.7832 39.4426 39.9127C38.7665 40.7453 37.8509 41.6259 36.7343 42.5176C36.4871 42.7174 35.5637 43.3872 35.5367 43.3872C35.5251 43.3872 35.3937 43.4686 35.2392 43.5648C34.961 43.7461 34.2154 44.1938 33.9913 44.3122C33.5393 44.5601 32.5889 45.0226 32.2953 45.1447C32.2103 45.178 32.0751 45.2372 31.9939 45.2779C31.9089 45.3149 31.8239 45.3482 31.7969 45.3482C31.7698 45.3482 31.6771 45.3815 31.5883 45.4222C31.5033 45.4629 31.4106 45.4963 31.3874 45.4963C31.3681 45.4963 31.3178 45.5111 31.2792 45.5296C31.1903 45.574 31.0474 45.6258 30.8851 45.6813C30.8117 45.7072 30.7151 45.7405 30.6726 45.7553C30.6301 45.7701 30.4215 45.8367 30.209 45.8996C29.1814 46.1993 28.5169 46.3547 27.6399 46.4953C26.7397 46.6396 26.7436 46.6396 25.5729 46.758C25.0205 46.8135 23.1583 46.8135 22.5402 46.758C22.0881 46.7136 21.4932 46.647 20.8596 46.5693C20.338 46.5027 19.0863 46.2363 18.5454 46.0735C18.4565 46.0476 18.3097 46.0032 18.2131 45.9773C17.9041 45.8922 17.5757 45.7886 17.51 45.7553C17.4714 45.7331 17.4134 45.7183 17.3825 45.7183C17.3516 45.7183 17.2937 45.7035 17.255 45.685C17.1855 45.6517 17.0155 45.5814 16.8725 45.5296C16.8223 45.5111 16.7451 45.4814 16.6987 45.4629C16.6485 45.4444 16.4901 45.3852 16.3394 45.3297C15.246 44.9301 13.7818 44.1864 12.6344 43.4538C12.4412 43.328 12.2751 43.217 12.2635 43.2022C12.2519 43.1874 12.1321 43.106 11.9931 43.0172C11.7226 42.8432 10.8881 42.2142 10.6022 41.97C9.95318 41.4113 9.09164 40.5603 8.63189 40.02C8.53531 39.909 8.45031 39.8091 8.43872 39.798C8.39622 39.761 7.75104 38.9211 7.60036 38.7065C7.44196 38.4808 7.17152 38.0627 7.04017 37.8444C7.00153 37.7815 6.93199 37.6631 6.88563 37.5853C6.84313 37.5113 6.76973 37.3855 6.72337 37.3078C6.45293 36.8268 6.07432 36.6492 5.73434 36.8416Z" fill="#29F0FC"/>
<path d="M23.5833 42.9072C23.5524 42.922 23.4597 42.9664 23.3824 42.9997C23.1931 43.0774 22.8724 43.3845 22.7874 43.5658C22.7527 43.6398 22.7063 43.7397 22.6831 43.7878C22.6599 43.8359 22.6406 44.0098 22.6406 44.1763C22.6406 44.4279 22.6599 44.5167 22.7449 44.6906C23.0231 45.2494 23.6953 45.6157 24.2362 45.4973C24.5646 45.4233 24.7771 45.316 25.0012 45.1088C25.712 44.4538 25.515 43.3956 24.6032 42.9812C24.3907 42.8813 24.3251 42.8702 24.0044 42.8739C23.8035 42.8739 23.6142 42.8887 23.5833 42.9072Z" fill="#29F0FC"/>
</svg>
